<?xml version="1.0" standalone="no"?><!DOCTYPE svg PUBLIC "-//W3C//DTD SVG 1.1//EN" "http://www.w3.org/Graphics/SVG/1.1/DTD/svg11.dtd"><svg t="1532496942087" class="icon" style="" viewBox="0 0 1024 1024" version="1.1" xmlns="http://www.w3.org/2000/svg" p-id="4314" xmlns:xlink="http://www.w3.org/1999/xlink" width="64" height="64"><defs><style type="text/css">html, * {  }
</style></defs><path d="M337.515 312.697c-53.445-7.749-98.456-53.445-93.67-109.054 4.672-55.495 52.19-97.089 106.091-92.643 53.786 4.329 97.545 53.33 88.771 108.485-10.484 66.663-49.113 100.962-101.191 93.214M563.825 586.299c-7.179 0.798-16.182-3.419-23.246-9.003-39.427-30.653-109.397-127.4-137.086-9.003-12.534 90.707 2.962 160.218 124.665 312.005 5.355 6.609 6.837 20.626-5.014 21.196s-24.728-6.609-24.728-6.609c-39.427-17.208-65.067-47.519-121.246-102.671-47.404-46.151-96.405-57.659-104.609-0.685-0.341 2.85-0.571 5.698-0.571 8.432 0.226 35.668 0.912 68.828 3.759 93.214 1.71 14.358-17.208 21.879-26.21 10.256-41.251-53.445-92.188-180.617-85.465-373.198 0-33.617-33.16-37.605-131.958 81.363-28.375 34.186-52.076 14.928-9.458-78.286 0 0 94.469-189.619 287.62-184.946 135.604 12.192 207.966 113.498 252.749 203.865 4.443 8.775 7.749 15.61 9.23 20.739 1.937 6.040-2.166 12.649-8.432 13.332M805.748 611.823c-40.909 8.205-94.582-15.157-103.584-57.318-8.889-42.275 30.426-87.287 71.335-95.493s81.248 19.372 90.251 61.649c8.889 42.163-16.978 83.072-58.003 91.163M1021.12 592.678c-7.293 14.358-23.816 31.108-77.145 67.233-16.865 11.395-34.3 37.035-37.605 56.748-3.876 24.842 3.876 48.886 12.649 83.414 6.381 26.096 12.422 65.638 2.85 90.707-3.646 9.458-16.069 11.281-20.284 1.937-11.852-26.891-26.096-63.358-69.739-71.222-44.1-3.419-60.737 26.551-61.421 68.030-0.226 12.534-13.56 16.751-23.816 6.609-11.852-12.192-22.108-29.628-30.082-76.348-9.915-59.028 5.242-86.377-19.487-105.294-17.321-13.332-93.554-23.589-127.741-61.535-6.268-6.952-1.937-17.776 7.407-19.030 40.909-5.242 112.13 15.724 230.87 1.824 88.314-11.507 158.509-52.989 196.798-66.55 12.877-4.558 24.613 7.522 16.751 23.473z" fill="#eeeeee" p-id="4315"></path></svg>