<?xml version="1.0" standalone="no"?><!DOCTYPE svg PUBLIC "-//W3C//DTD SVG 1.1//EN" "http://www.w3.org/Graphics/SVG/1.1/DTD/svg11.dtd"><svg t="1532496850839" class="icon" style="" viewBox="0 0 1024 1024" version="1.1" xmlns="http://www.w3.org/2000/svg" p-id="1481" xmlns:xlink="http://www.w3.org/1999/xlink" width="64" height="64"><defs><style type="text/css">html, * {  }
</style></defs><path d="M348.532644 302.655904 258.916475 221.783002c0 0-59.741546-58.05849-65.345059-78.794105l-7.466731-8.29671c0 0-46.674382 0-52.276355-4.146815 0 0-24.27111 4.146815-22.403272-6.222532 1.864758-10.367808 16.801299-12.438905 16.801299-12.438905s-20.538514-8.29671-14.936541-16.5888c5.601973-8.29671 28.005245 2.071098 28.005245 2.071098S124.495302 84.925786 135.694629 80.780511C146.898574 76.629077 154.363765 97.364692 154.363765 97.364692s50.411597 12.443525 69.082274 43.548487c0 0 54.141113 41.47277 63.475681 58.06157l56.01049 49.76486c0 0 46.674382 45.618045 35.470436-22.808253 0 0-33.58874-18.666057-14.919603-35.254857l3.732595-11.742893c0 0-14.933462-8.29363 5.588114-15.209095 0 0 14.931922-31.104962 35.470436-33.17914 0 0 76.547465 14.514623 46.674382 68.429377 0 0 7.466731 41.47277-24.27111 31.104962l-4.345456 6.222532c0 2.071098 1.238039 20.036523 1.238039 20.036523l15.56634 2.075717c6.227152-3.452343 25.523008-12.443525 37.964992-8.29209 12.441985 4.145275 0.61286 1.388944 0.61286 1.388944l26.765666-11.06382c0 0-3.124355-18.664517 6.210214-22.811332 0 0 0.933149-18.661438 7.47135-10.367808l21.467044 18.666057 70.012343-19.702376 54.141113-16.58572c0 0 50.410057-24.88705 54.144192-13.481383l-18.669137 11.405666c0 0 29.868463 1.037859 9.334568 12.443525 0 0 14.003392 9.331489 8.40142 13.476764-5.603513 4.146815-13.068704-6.222532-13.068704-6.222532l-23.336421 3.113576c0 0-13.067164 5.184674-27.070556 5.184674 0 0-62.544072 24.88243-73.749558 29.029245l-29.868463 19.697756c0 0-2.802526 25.920289-8.39988 33.17914 0 0 6.532042 10.367808-6.536662 19.697756l-6.535122 17.626659c0 0 1.869377 19.697756-3.734135 27.991386l13.068704 0c0 0 84.014195-30.067104 102.683332-30.067104l24.27265-10.367808c0 0 31.737841-31.104962 140.023146-45.618045 0 0 76.549005-69.468776 96.15129-48.731621 19.600746 20.737155-28.938394 57.025251-28.938394 57.025251s-38.272962 31.104962-72.814869 25.920289c0 0-82.144818 41.47277-94.278833 37.325955l-38.272962 23.844571c0 0-131.624806 72.576192-140.024686 65.321961l-3.732595 19.697756c0 0-5.603513 123.378911-16.805919 161.742725l0 38.359194c0 0 16.805919 47.695302-6.532042 103.681155l-9.336108 44.584806-3.737215 17.622039c0 0 30.806232 39.401672 9.334568 49.76948l-15.866611 16.59034-6.536662 25.918749c0 0 3.732595 32.138202-11.199326 30.067104-14.936541-2.077257-11.203946-30.067104-11.203946-30.067104s-15.87123-36.286556 2.799447-87.095435l6.536662-80.869823 3.732595-68.429377c0 0-14.001853-116.12006-19.603826-129.601444l-5.597353 12.443525c0 0-7.47135 39.397053-20.538514 41.47277 0 0-14.936541 31.104962-28.938394 25.920289-14.001853-5.183134-15.866611-19.697756-15.866611-19.697756s-16.805919-10.367808 8.40142-35.256397l10.269257-22.808253 15.866611-37.324415 11.203946-38.365353c0 0 10.269257-12.438905-12.137095-26.951988 0 0-48.53914-13.481383-61.606304-72.576192 0 0-19.603826-46.655904-7.47135-63.246244L348.532644 302.655904z" p-id="1482" fill="#eeeeee"></path></svg>