<?xml version="1.0" standalone="no"?><!DOCTYPE svg PUBLIC "-//W3C//DTD SVG 1.1//EN" "http://www.w3.org/Graphics/SVG/1.1/DTD/svg11.dtd"><svg t="1531896981645" class="icon" style="" viewBox="0 0 1024 1024" version="1.1" xmlns="http://www.w3.org/2000/svg" p-id="8872" xmlns:xlink="http://www.w3.org/1999/xlink" width="200" height="200"><defs><style type="text/css">html, * {  }
</style></defs><path d="M952.443263 76.982825C904.629261 27.820568 840.561529 0.486396 772.039433 0.008533c-61.268823-0.471463-119.452871 20.716627-165.720219 59.939767l-3.818635-3.818634c-8.334864-8.328464-21.838751-8.328464-30.171482 0-8.330597 8.332731-8.330597 21.840885 0 30.171481l3.825035 3.825035c-37.083424 43.807635-57.99205 98.369314-59.822435 155.461105a47.250806 47.250806 0 0 0-36.763427 17.710786L73.23779 771.208507a47.146274 47.146274 0 0 0 3.481571 62.851742 7.249006 7.249006 0 0 1 0.002133 10.237782c-13.284156 13.282023-20.603562 30.945875-20.603562 49.733985 0 12.330564 3.150907 24.170465 9.068725 34.610912L6.251681 987.577904c-8.330597 8.332731-8.330597 21.840885 0 30.171481a21.269156 21.269156 0 0 0 15.084675 6.248482c5.461288 0 10.918309-2.082116 15.084674-6.248482l58.862443-58.862442c26.875509 15.406805 61.819218 11.647903 84.74596-11.27884a7.24474 7.24474 0 0 1 10.237781 0 47.139874 47.139874 0 0 0 62.851743 3.479438L761.029391 544.76346a47.242273 47.242273 0 0 0 17.710786-36.776227 253.18189 253.18189 0 0 0 155.456838-59.811768l3.827168 3.827168c8.334864 8.328464 21.843018 8.332731 30.171482 0 8.330597-8.332731 8.330597-21.840885 0-30.171482l-3.829301-3.827168c37.727686-44.620428 58.717377-100.628495 59.60057-160.220531 1.011192-68.123166-24.390197-132.331697-71.523671-180.800627z m-218.067516 434.462513L226.467446 917.773685a4.522629 4.522629 0 0 1-6.026616-0.332797c-19.457971-19.457971-51.120641-19.457971-70.578612 0-10.788177 10.792443-28.34323 10.788177-39.127141 0.004267l-1.960517-1.960517-0.125865-0.127999-0.119466-0.117333-1.64052-1.640519a27.489904 27.489904 0 0 1-8.104466-19.564637c0-7.391938 2.879976-14.340147 8.1066-19.564637 19.457971-19.457971 19.457971-51.120641 0-70.578612a4.522629 4.522629 0 0 1-0.334931-6.026617l406.330481-507.910434a4.405297 4.405297 0 0 1 3.281039-1.689586 4.437296 4.437296 0 0 1 3.449571 1.318389l41.241257 41.239123-85.791286 107.237507c-25.217923 31.524004-22.709144 76.820693 5.834618 105.368722 28.541629 28.541629 73.842585 31.054675 105.366589 5.832484l107.237506-85.789151 41.241257 41.241256c1.181857 1.181857 1.367455 2.525846 1.318389 3.449571a4.418097 4.418097 0 0 1-1.689586 3.283173z m-130.063983-166.633278a4.415963 4.415963 0 0 1 3.55197-1.698119c0.904526 0 2.109849 0.251731 3.180774 1.324789l68.848493 68.850626c1.18399 1.181857 1.369589 2.527979 1.318389 3.449571a4.411697 4.411697 0 0 1-1.691719 3.283173l-119.903001 95.9224a36.409297 36.409297 0 0 1-48.541462-2.685844 36.419963 36.419963 0 0 1-2.690111-48.545729l95.926667-119.900867z m150.983275 120.105666l-33.757585-33.755452a47.148407 47.148407 0 0 0 2.271981-12.066033 47.25294 47.25294 0 0 0-13.749219-35.9805l-68.848493-68.850627a47.129207 47.129207 0 0 0-35.978367-13.747085 47.052408 47.052408 0 0 0-12.068166 2.269848l-33.757585-33.755452c-3.844235-54.154215 12.998292-106.970842 47.043875-148.604629l297.448188 297.448188c-41.620986 34.013583-94.535746 50.858243-148.604629 47.041742z m226.011983-207.767869c-0.718927 48.38573-17.331056 93.910684-47.242273 130.552512L636.612295 90.252048c38.034883-31.16134 85.296356-47.965467 135.128474-47.570804 57.012858 0.394663 110.324414 23.142207 150.112882 64.0528 39.180473 40.285531 60.293898 93.703752 59.453371 150.415813z" p-id="8873"></path><path d="M587.415905 458.251115a21.273423 21.273423 0 0 0 15.084674-6.248482l18.284648-18.284647c8.330597-8.332731 8.330597-21.840885 0-30.171482-8.334864-8.328464-21.838751-8.328464-30.171482 0l-18.284648 18.284647c-8.330597 8.332731-8.330597 21.840885 0 30.171482a21.279823 21.279823 0 0 0 15.086808 6.248482z" p-id="8874"></path></svg>