<?xml version="1.0" standalone="no"?><!DOCTYPE svg PUBLIC "-//W3C//DTD SVG 1.1//EN" "http://www.w3.org/Graphics/SVG/1.1/DTD/svg11.dtd"><svg t="1532496887806" class="icon" style="" viewBox="0 0 1052 1024" version="1.1" xmlns="http://www.w3.org/2000/svg" p-id="2453" xmlns:xlink="http://www.w3.org/1999/xlink" width="65.75" height="64"><defs><style type="text/css">html, * {  }
</style></defs><path d="M554.505045 48.430359c2.006245-19.419 19.379403-33.538609 38.805003-31.529065 19.419 2.006245 33.538609 19.379403 31.529064 38.801703a270.94867 270.94867 0 0 0-0.791938 10.965053c-4.306167 75.900737 4.345764 166.851611 36.303795 252.823171 24.385116 65.598933 60.45463 120.942258 109.815517 163.287886 32.007528 27.44728 44.780841 70.759734 31.888737 110.706449-9.0644 28.051133-16.680212 59.395412-22.91673 93.435582-9.344878 50.984362-15.244822 105.816226-18.323484 161.357536-2.032643 36.670067-2.573801 68.040744-2.306522 91.053166l0.049496 3.289846c0.438866 19.521292-15.033639 35.699942-34.554931 36.132209-19.521292 0.438866-35.699942-15.033639-36.132209-34.554931-0.019798-0.811737-0.019798-0.811737-0.065994-4.035588-0.287078-24.507207 0.283778-57.432064 2.408814-95.8015 3.23375-58.293297 9.440571-115.986041 19.372803-170.184354 6.764477-36.917548 15.102933-71.221698 25.183655-102.420788 4.032289-12.492835-0.009899-26.193377-10.638379-35.307273-59.098435-50.703883-101.721242-116.098232-130.056153-192.319044-35.917725-96.613237-45.43749-196.674708-40.623162-281.468257 0.376171-6.658886 0.768841-11.466614 1.055918-14.228501z" fill="#979798" p-id="2454"></path><path d="M870.013474 97.761548c0-14.782858-12.275052-27.05131-27.114006-27.05131H165.583888c-14.802657 0-27.071109 12.268452-27.071109 27.05131v810.295308h731.500695V97.761548zM67.802541 978.763794V97.764848c0-53.838641 43.929507-97.764848 97.781347-97.764848h677.31558c53.884838 0 97.820944 43.919607 97.820944 97.761548v881.002246H67.805841z" fill="#979798" p-id="2455"></path><path d="M36.306474 978.763794c-19.524592 0-35.353469-15.828877-35.353469-35.353469 0-19.524592 15.828877-35.353469 35.353469-35.353469h947.053244c19.524592 0 35.353469 15.828877 35.353469 35.353469 0 19.524592-15.828877 35.353469-35.353469 35.353469H36.306474z" fill="#979798" p-id="2456"></path><path d="M383.683841 55.702997c-2.006245-19.4223 12.110065-36.792158 31.532364-38.805002 19.4223-2.006245 36.792158 12.110065 38.805002 31.532364 0.283778 2.765186 0.673148 7.576215 1.052619 14.2351 4.811028 84.79685-4.705437 184.851721-40.613263 281.461659-28.331611 76.224112-70.94782 141.618461-130.056153 192.328943-10.638378 9.123795-14.683866 22.807838-10.635079 35.287474 10.087321 31.212289 18.425777 65.516439 25.190254 102.430688 9.932233 54.201613 16.139053 111.894357 19.372804 170.187653 2.128336 38.369436 2.699191 71.294293 2.408814 95.8015-0.042897 3.223851-0.042897 3.223851-0.059396 4.035588-0.438866 19.521292-16.614217 34.993797-36.135508 34.558231-19.521292-0.435566-34.993797-16.614217-34.558231-36.135509 0.013199-0.452065 0.013199-0.452065 0.052796-3.289846 0.267279-23.012422-0.273879-54.383099-2.309821-91.056466-3.078662-55.53471-8.978606-110.369874-18.323485-161.354236-6.236518-34.036871-13.85563-65.38115-22.91013-93.399285-12.9515-39.936815-0.151788-83.275667 31.875537-110.736146 49.360887-42.352228 85.423801-97.692254 109.808918-163.294486 31.954732-85.968259 40.603364-176.915834 36.297196-252.816571a271.014665 271.014665 0 0 0-0.791939-10.971653z" fill="#979798" p-id="2457"></path></svg>