<?xml version="1.0" standalone="no"?><!DOCTYPE svg PUBLIC "-//W3C//DTD SVG 1.1//EN" "http://www.w3.org/Graphics/SVG/1.1/DTD/svg11.dtd"><svg t="1531896712293" class="icon" style="" viewBox="0 0 1024 1024" version="1.1" xmlns="http://www.w3.org/2000/svg" p-id="1997" xmlns:xlink="http://www.w3.org/1999/xlink" width="200" height="200"><defs><style type="text/css">html, * {  }
</style></defs><path d="M813.062823 467.62842l-193.162348-193.284121c0 0-42.128493-40.213887-89.714278 0.217964-32.237215 32.386618-86.417185 86.815251-114.077152 114.603131l-28.013007-27.033703c-21.284769-20.306488-55.796794-20.306488-77.082586 0l-101.109816 97.577363 0.150426 0.214894c-7.760754 4.78191-12.955056 13.357216-12.955056 23.175839 0 15.021112 12.122085 27.198455 27.073612 27.198455 6.426363 0 12.319583-2.25946 16.962324-6.016017l0.512676 0.732687c0.528026-0.852414 1.017166-1.723248 1.548262-2.572592 1.127683-1.119497 2.145873-2.346441 3.064802-3.64911l84.021625-81.511455c10.643408-10.153244 27.897374-10.153244 38.539758 0l84.392062 81.869612c0.821715 1.199315 1.744737 2.319835 2.743484 3.370771 0.511653 0.824785 0.98749 1.666966 1.499144 2.492774l0.539282-0.551562c4.724605 4.040013 10.837836 6.491855 17.528212 6.491855 14.951527 0 27.073612-12.17632 27.073612-27.198455 0-9.205663-4.564969-17.328667-11.532661-22.249747l-36.207643-34.941813 93.977371-93.853551c0 0 23.325241-22.422685 50.633191-1.777483 26.474978 26.932396 171.467233 174.080757 171.467233 174.080757l0.997724-0.886183c4.773723 4.235464 11.026124 6.826476 17.895579 6.826476 14.95255 0 27.073612-12.17632 27.073612-27.198455 0-5.694699-1.74883-10.975982-4.727675-15.3455L813.062823 467.62842zM308.946374 260.229836c0-22.532179 18.182105-40.797172 40.61093-40.797172 22.428825 0 40.61093 18.266016 40.61093 40.797172s-18.182105 40.797172-40.61093 40.797172C327.128479 301.027008 308.946374 282.760992 308.946374 260.229836L308.946374 260.229836zM931.646616 136.601144c0-36.870746-29.705556-66.759473-66.349127-66.759473l-706.59293 0c-36.644595 0-66.350151 29.889751-66.350151 66.759473l0 477.205543 839.292208 0L931.646616 136.601144zM882.614899 564.526307l-741.229798 0 0-412.830373c0-18.556635 14.902408-33.598212 33.287127-33.598212l674.655544 0c18.384719 0 33.287127 15.042601 33.287127 33.598212L882.614899 564.526307zM938.414763 654.603859l-852.829526 0c-11.214413 0-20.305465 9.133008-20.305465 20.398586l0 13.598716c0 11.265578 9.091052 20.398586 20.305465 20.398586l398.416082 0 0 224.385467c0 11.265578 9.091052 20.398586 20.305465 20.398586l16.819061 0c11.214413 0 20.305465-9.133008 20.305465-20.398586l0-224.385467 396.98243 0c11.214413 0 20.305465-9.133008 20.305465-20.398586l0-13.598716C958.720228 663.736866 949.629175 654.603859 938.414763 654.603859zM483.437477 703.505615l-117.108185 212.757638c-5.256724 9.951653-1.486864 22.299889 8.41874 27.580149l14.857383 7.92039c9.905604 5.28026 22.197558 1.494027 27.454282-8.457626l104.69548-198.209294M493.206982 743.825926l135.230937 201.619974c6.426363 9.233292 19.085684 11.484565 28.27702 5.028527l13.783934-9.682523c9.190313-6.455015 11.431354-19.173688 5.006014-28.405957l-141.43729-210.911594" p-id="1998"></path></svg>