<?xml version="1.0" standalone="no"?><!DOCTYPE svg PUBLIC "-//W3C//DTD SVG 1.1//EN" "http://www.w3.org/Graphics/SVG/1.1/DTD/svg11.dtd"><svg t="1531897199728" class="icon" style="" viewBox="0 0 1024 1024" version="1.1" xmlns="http://www.w3.org/2000/svg" p-id="10860" xmlns:xlink="http://www.w3.org/1999/xlink" width="200" height="200"><defs><style type="text/css">html, * {  }
</style></defs><path d="M996.305165 758.167832l-83.595021-147.498771a140.811169 140.811169 0 1 0-256.729599-79.879687 142.111536 142.111536 0 0 0 2.600734 25.821574l-18.576671-6.316069a118.519164 118.519164 0 0 0-22.663539-7.430668l-2.786501-1.857667-103.47206-138.767736a331.036284 331.036284 0 0 0-64.832583-87.496122 185.766714 185.766714 0 1 0-276.235104-9.845636 252.642731 252.642731 0 0 0-76.535886 154.186373c-18.576671 26.56464-74.306686 114.618063-78.207786 180.565246a94.926791 94.926791 0 0 0 13.746736 53.12928 80.622754 80.622754 0 0 0 74.306686 41.983277 133.380501 133.380501 0 0 0 24.89274-2.600734V940.404979a83.595021 83.595021 0 0 0 83.595021 83.595021h2.972267a83.595021 83.595021 0 0 0 83.595022-83.595021v-180.565246h8.731035v180.565246a83.595021 83.595021 0 0 0 83.595022 83.595021h5.944534A83.595021 83.595021 0 0 0 479.502167 940.404979V720.085656v-2.229201V671.043243c29.165374 20.620105 64.646816 33.995309 97.899058 20.620106L628.115538 711.540387a18.576671 18.576671 0 0 1 10.960236 16.347471v200.628051A76.721653 76.721653 0 0 0 705.394491 1005.423329a74.306686 74.306686 0 0 0 81.923121-74.306686v-30.465741h9.474102V931.116643a74.306686 74.306686 0 0 0 65.57565 74.306686 72.820552 72.820552 0 0 0 79.879687-72.263252v-52.01468a83.595021 83.595021 0 0 0 62.417616-65.947184 79.13662 79.13662 0 0 0-8.359502-57.030381z m-434.322577-117.218796c-26.936174 18.576671-76.350119-32.880708-88.053423-47.370512a26.378873 26.378873 0 0 0-46.998978 16.533237V940.404979a30.837275 30.837275 0 0 1-30.837275 30.837274h-5.944535a30.837275 30.837275 0 0 1-30.837274-30.837274V737.733494A33.809542 33.809542 0 0 0 330.888796 706.896219h-58.702282a32.694942 32.694942 0 0 0-27.307707 30.837275V940.404979a30.837275 30.837275 0 0 1-30.837274 30.837274h-2.972268A30.837275 30.837275 0 0 1 180.417757 940.404979V720.085656a26.56464 26.56464 0 0 0 0-5.387235l20.434339-10.588703a26.378873 26.378873 0 1 0-23.592373-46.998978L145.122082 673.086677l-8.173736 2.414968c-33.995309 10.217169-51.271613 10.960236-63.346449-10.960237a44.769778 44.769778 0 0 1-5.201468-26.378873c4.829935-42.912111 40.311377-107.744694 69.476751-150.285272a47.370512 47.370512 0 0 0 7.616435-18.576671c12.260603-78.207787 46.813212-114.432296 63.90375-127.807499a184.094814 184.094814 0 0 0 35.109909 18.576671 26.378873 26.378873 0 0 0 18.576671-49.228179 131.894367 131.894367 0 1 1 99.385192-0.928834 26.378873 26.378873 0 0 0 20.434339 48.856646 184.094814 184.094814 0 0 0 20.620105-10.217169 280.507738 280.507738 0 0 1 60.745715 80.436987 26.936174 26.936174 0 0 0 2.414968 4.086868L572.385524 572.958418l2.2292 2.600734a43.655178 43.655178 0 0 1 11.33177 29.536908 54.058114 54.058114 0 0 1-23.963906 35.852976zM754.436904 854.209223a20.062805 20.062805 0 0 0-20.062806 20.062806V931.116643a21.734706 21.734706 0 0 1-43.283644 0V694.078316a20.434339 20.434339 0 0 0-12.817903-18.576671l-55.730014-22.106239a87.681889 87.681889 0 0 0 16.34747-44.398245v-2.972268l50.90008 17.090538a143.783437 143.783437 0 0 0 18.576672 18.576672 27.307707 27.307707 0 0 0 33.995308 0 26.378873 26.378873 0 0 0 0-41.425978 89.168023 89.168023 0 0 1-13.375203-13.00367 26.378873 26.378873 0 0 0-3.715335-5.015701 87.867656 87.867656 0 0 1 54.801181-138.024668A89.353789 89.353789 0 0 1 869.612266 584.104421a73.006319 73.006319 0 0 1-37.153343 27.12194 26.378873 26.378873 0 1 0 20.434339 48.67088 140.625403 140.625403 0 0 0 20.620105-11.33177l76.721653 135.423934a26.378873 26.378873 0 0 1 2.786501 18.576672 37.153343 37.153343 0 0 1-7.616435 17.090538 37.153343 37.153343 0 0 1-3.343801 2.7865v-8.359502a26.378873 26.378873 0 1 0-52.757747 0v118.890697a19.877038 19.877038 0 1 1-39.56831 0v-59.445348a20.062805 20.062805 0 0 0-20.062805-20.062805z" fill="" p-id="10861"></path></svg>