<?xml version="1.0" standalone="no"?><!DOCTYPE svg PUBLIC "-//W3C//DTD SVG 1.1//EN" "http://www.w3.org/Graphics/SVG/1.1/DTD/svg11.dtd"><svg t="1532496873240" class="icon" style="" viewBox="0 0 1024 1024" version="1.1" xmlns="http://www.w3.org/2000/svg" p-id="1719" xmlns:xlink="http://www.w3.org/1999/xlink" width="64" height="64"><defs><style type="text/css">html, * {  }
</style></defs><path d="M456.95874 953.572017l181.818439-188.132172-53.92269-55.458463-181.8611 187.705568 53.965351 55.885067 233.864074-241.884221a139.499366 139.499366 0 0 1 201.527524 0.426604 147.391532 147.391532 0 0 1 40.228717 82.761091l75.46617-11.091692a220.1701 220.1701 0 0 0-247.984652-191.545001 217.141215 217.141215 0 0 0-123.160449 63.990535l-233.906735 241.457617 53.965351 55.885067 181.818439-188.132172-53.92269-55.458463-187.705569 193.678018a137.57965 137.57965 0 0 1-198.66928-2.133017 150.932341 150.932341 0 0 1-37.07185-144.192005l-73.418473-21.756782a231.304453 231.304453 0 0 0 56.524972 221.40725 211.595368 211.595368 0 0 0 306.599982 2.559621z m281.558353-878.37674a242.609447 242.609447 0 0 0-351.180055 0 259.161666 259.161666 0 0 0-69.237758 219.700836 255.962139 255.962139 0 0 0 69.237758 142.912195 241.158995 241.158995 0 0 0 138.347536 71.669398 242.225504 242.225504 0 0 0 212.832519-71.669398 262.787796 262.787796 0 0 0 0-362.613031m-378.1414 390.768866a294.057837 294.057837 0 0 1-66.336854-110.490324l-70.688211 86.600524-13.864616 17.064143 51.704352 53.325445-53.965351 55.885067-47.139694-49.05941-123.715033 151.444266a89.586749 89.586749 0 0 0 4.82062 118.169187l9.299958 9.385279a83.102374 83.102374 0 0 0 114.457736 5.119243l305.874756-267.480436a278.145524 278.145524 0 0 1-110.447663-69.962984" fill="#eeeeee" p-id="1720"></path></svg>