<?xml version="1.0" standalone="no"?><!DOCTYPE svg PUBLIC "-//W3C//DTD SVG 1.1//EN" "http://www.w3.org/Graphics/SVG/1.1/DTD/svg11.dtd"><svg t="1532611270445" class="icon" style="" viewBox="0 0 1024 1024" version="1.1" xmlns="http://www.w3.org/2000/svg" p-id="3074" xmlns:xlink="http://www.w3.org/1999/xlink" width="64" height="64"><defs><style type="text/css">html, * {  }
</style></defs><path d="M354.2 337.1c-46.9-6.8-86.4-46.9-82.2-95.7 4.1-48.7 45.8-85.2 93.1-81.3 47.2 3.8 85.6 46.8 77.9 95.2-9.2 58.5-43.1 88.6-88.8 81.8m198.6 240.1c-6.3 0.7-14.2-3-20.4-7.9-34.6-26.9-96-111.8-120.3-7.9-11 79.6 2.6 140.6 109.4 273.8 4.7 5.8 6 18.1-4.4 18.6s-21.7-5.8-21.7-5.8c-34.6-15.1-57.1-41.7-106.4-90.1-41.6-40.5-84.6-50.6-91.8-0.6-0.3 2.5-0.5 5-0.5 7.4 0.2 31.3 0.8 60.4 3.3 81.8 1.5 12.6-15.1 19.2-23 9-36.2-46.9-80.9-158.5-75-327.5 0-29.5-29.1-33-115.8 71.4-24.9 30-45.7 13.1-8.3-68.7 0 0 82.9-166.4 252.4-162.3 119 10.7 182.5 99.6 221.8 178.9 3.9 7.7 6.8 13.7 8.1 18.2 1.7 5.3-1.9 11.1-7.4 11.7m212.3 22.4c-35.9 7.2-83-13.3-90.9-50.3-7.8-37.1 26.7-76.6 62.6-83.8s71.3 17 79.2 54.1c7.8 37-14.9 72.9-50.9 80m189-16.8c-6.4 12.6-20.9 27.3-67.7 59-14.8 10-30.1 32.5-33 49.8-3.4 21.8 3.4 42.9 11.1 73.2 5.6 22.9 10.9 57.6 2.5 79.6-3.2 8.3-14.1 9.9-17.8 1.7-10.4-23.6-22.9-55.6-61.2-62.5-38.7-3-53.3 23.3-53.9 59.7-0.2 11-11.9 14.7-20.9 5.8-10.4-10.7-19.4-26-26.4-67-8.7-51.8 4.6-75.8-17.1-92.4-15.2-11.7-82.1-20.7-112.1-54-5.5-6.1-1.7-15.6 6.5-16.7 35.9-4.6 98.4 13.8 202.6 1.6 77.5-10.1 139.1-46.5 172.7-58.4 11.3-4 21.6 6.6 14.7 20.6" fill="#ffea00" p-id="3075"></path></svg>