<?xml version="1.0" standalone="no"?><!DOCTYPE svg PUBLIC "-//W3C//DTD SVG 1.1//EN" "http://www.w3.org/Graphics/SVG/1.1/DTD/svg11.dtd"><svg t="1531903651281" class="icon" style="" viewBox="0 0 1024 1024" version="1.1" xmlns="http://www.w3.org/2000/svg" p-id="4465" xmlns:xlink="http://www.w3.org/1999/xlink" width="64" height="64"><defs><style type="text/css">html, * {  }
</style></defs><path d="M265.152 143.744c0 35.136-28.352 63.552-63.36 63.552-34.944 0-63.36-28.544-63.36-63.552 0-34.88 28.416-63.36 63.36-63.36C236.8 80.384 265.152 108.864 265.152 143.744z" p-id="4466" fill="#f4ea2a"></path><path d="M509.312 500.224m-46.016 0a0.719 0.719 0 1 0 92.032 0 0.719 0.719 0 1 0-92.032 0Z" p-id="4467" fill="#f4ea2a"></path><path d="M880.32 143.744c0 35.136-28.416 63.552-63.36 63.552-35.008 0-63.36-28.544-63.36-63.552 0-34.88 28.352-63.36 63.36-63.36C851.904 80.384 880.32 108.864 880.32 143.744z" p-id="4468" fill="#f4ea2a"></path><path d="M991.872 515.456c-17.408 5.504-35.904-4.352-41.216-21.76l-49.344-161.152C900.928 331.904 899.52 329.024 896 329.024c-0.256 0-6.912 0-6.912 0l0 0c-1.92 0-3.136 1.728-2.56 3.584l98.688 323.712c0.576 1.92 0 5.184-3.456 5.184l-69.312 0c-1.92 0-3.328 1.664-3.328 3.584 0 0 0 235.84 0 235.904 0 23.68-19.072 42.752-42.56 42.752-23.552 0-42.688-19.072-42.688-42.752l0-235.904c0-1.856-1.536-3.584-3.52-3.584L813.44 661.504c-1.92 0-3.52 1.664-3.52 3.584l0 235.904c0 23.68-19.072 42.752-42.624 42.752-23.488 0-42.56-19.072-42.56-42.752 0-0.064 0-235.904 0-235.904 0-1.856-1.472-3.584-3.392-3.584l-69.376 0c-3.392 0-3.904-3.264-3.392-5.184l98.752-323.712c0.576-1.792-0.64-3.584-2.56-3.584l0 0c0 0-6.656 0-6.976 0-3.456 0-4.928 2.88-5.248 3.584L599.68 652.736c-0.96 1.728-1.728 6.4-1.728 6.4s-0.064 245.312-0.32 247.232c-2.176 19.328-19.712 37.184-41.024 37.184-22.592 0-38.976-18.88-39.296-39.424l-0.064-104.576c0-1.856-1.536-3.456-3.52-3.456l-5.12 0c-1.856 0-3.392 1.6-3.392 3.456l0 104.064c-0.384 20.672-20.8 39.936-43.264 39.936-22.592 0-40.576-19.328-40.896-40.192l0-248.32c0-1.792-0.768-4.8-1.728-6.336L292.416 386.048c0.192 97.856 1.472 277.696 1.472 278.912l0 235.84c0 23.68-19.072 42.752-42.56 42.752-23.488 0-42.624-19.072-42.624-42.752l0-235.84c0-1.92-1.536-3.584-3.584-3.584L198.336 661.376c-1.984 0-3.584 1.6-3.584 3.584l0 235.84c0 23.68-19.072 42.752-42.56 42.752-23.616 0-42.624-19.072-42.624-42.752l0-235.84c0-1.92-2.368-332.416-2.368-332.416 0.192-0.512 0.192-1.152 0.064-1.472C106.752 331.776 106.56 332.224 106.368 332.48c0 0-38.208 161.216-38.208 161.216C62.72 511.04 44.288 520.896 26.88 515.456 9.408 510.144-0.384 491.648 4.992 474.176c0-0.064 49.344-161.28 49.472-161.728 7.488-26.24 25.92-86.08 77.824-86.08l139.136 0c55.744 0 70.144 59.84 77.632 86.08l120.32 251.904C470.4 566.016 553.408 567.232 555.328 563.84l114.304-251.392c7.552-26.24 21.952-86.08 77.696-86.08l139.2 0c51.904 0 70.208 59.84 77.824 86.08 0.128 0.512 49.344 161.664 49.344 161.728C1019.136 491.712 1009.28 510.144 991.872 515.456z" p-id="4469" fill="#f4ea2a"></path></svg>